<svg width="150" height="151" viewBox="0 0 150 151" fill="none" xmlns="http://www.w3.org/2000/svg">
<path fill-rule="evenodd" clip-rule="evenodd" d="M10 65H30V65.0502H85V83.9003V84.9638V112H65V84.9638H30V140H10V65ZM80.0292 97.6405H70.0292V107.641H80.0292V97.6405Z" fill="white"/>
<path fill-rule="evenodd" clip-rule="evenodd" d="M38 93H57V120.086H140V140H57H56.2841H38V93ZM52.5 97.6405H42.5V107.641H52.5V97.6405Z" fill="white"/>
<path fill-rule="evenodd" clip-rule="evenodd" d="M65 10H123.333V10.1198H140V112.12H120.041V30H65V10ZM80 15H70V25H80V15Z" fill="white"/>
<path fill-rule="evenodd" clip-rule="evenodd" d="M57 10H38V57H50.332H57H93.0584V112.12H112V57V38H57V10ZM52.5 15H42.5V25H52.5V15Z" fill="white"/>
<path fill-rule="evenodd" clip-rule="evenodd" d="M30 10H10V57H30V10ZM25 15H15V25H25V15Z" fill="white"/>
</svg>
