<svg xmlns="http://www.w3.org/2000/svg" xmlns:xlink="http://www.w3.org/1999/xlink" viewBox="0 0 548 619"><defs><style>.cls-1{fill:url(#Degradado_sin_nombre_32);}.cls-2{stroke:#fc3;stroke-width:7px;fill:url(#Degradado_sin_nombre_40);}.cls-2,.cls-3,.cls-4,.cls-5,.cls-6,.cls-7,.cls-8,.cls-9{stroke-miterlimit:10;}.cls-3,.cls-4{fill:#333;stroke:#333;}.cls-3,.cls-7{stroke-width:4px;}.cls-4{stroke-width:5px;}.cls-5,.cls-6,.cls-7,.cls-8{fill:none;}.cls-5{stroke:#fc6;}.cls-5,.cls-8,.cls-9{stroke-width:6px;}.cls-6,.cls-7{stroke:#999;}.cls-6{stroke-width:3px;}.cls-8{stroke:#fc0;}.cls-9{fill:#c90;stroke:#c90;}</style><radialGradient id="Degradado_sin_nombre_32" cx="274" cy="345" r="274" gradientUnits="userSpaceOnUse"><stop offset="0" stop-color="#ff3" stop-opacity="0.7"/><stop offset="0.03" stop-color="#ff3" stop-opacity="0.67"/><stop offset="0.38" stop-color="#ff3" stop-opacity="0.39"/><stop offset="0.67" stop-color="#ff3" stop-opacity="0.18"/><stop offset="0.88" stop-color="#ff3" stop-opacity="0.05"/><stop offset="1" stop-color="#ff3" stop-opacity="0"/></radialGradient><radialGradient id="Degradado_sin_nombre_40" cx="272.5" cy="344.83" r="172.66" gradientUnits="userSpaceOnUse"><stop offset="0" stop-color="#ff3" stop-opacity="0.9"/><stop offset="1" stop-color="#ff3" stop-opacity="0.9"/></radialGradient></defs><title>Light</title><g id="Capa_2" data-name="Capa 2"><g id="Capa_1-2" data-name="Capa 1"><circle class="cls-1" cx="274" cy="345" r="274"/><path class="cls-2" d="M400,414.05c0-21-40-223-43-245s-11-31-18.48-32-66,0-66,0-58.54-1-66,0-15.48,10-18.48,32-43,224-43,245-4,106,62,108c49.71,1.51,62,18.33,65,26.54v4.46a12.21,12.21,0,0,1,.5-2.93,12.21,12.21,0,0,1,.5,2.93v-4.46c3-8.21,15.3-25,65-26.54C404,520.05,400,435.05,400,414.05Z"/><rect class="cls-3" x="200" y="2" width="145" height="55"/><polygon class="cls-4" points="363 74.5 351.5 57.5 194.5 57.5 183 74.5 182.5 74.5 182.5 84.5 363.5 84.5 363.5 74.5 363 74.5"/><path class="cls-5" d="M250,138v19c0,9,0,10,4,10h3v12c0,9,0,10,2.73,10H285c2.05,0,2.05-3,2.05-9V167h4c3,0,3-3,3-9V138Z"/><polygon class="cls-3" points="177 112.5 369 112.5 356.73 137 189.27 137 177 112.5"/><polyline class="cls-6" points="267 167 267 467 276 467 276 167"/><line class="cls-7" x1="221" y1="223" x2="322" y2="223"/><line class="cls-7" x1="198" y1="467" x2="345" y2="467"/><line class="cls-8" x1="272" y1="467" x2="294" y2="223"/><line class="cls-8" x1="272" y1="223" x2="306" y2="467"/><polyline class="cls-8" points="309 467 322 223 345 467 297 223"/><line class="cls-8" x1="271.82" y1="466.77" x2="249.82" y2="222.77"/><line class="cls-8" x1="271.82" y1="222.77" x2="237.82" y2="466.77"/><polyline class="cls-8" points="234.82 466.77 221.82 222.77 198.82 466.77 246.82 222.77"/><rect class="cls-9" x="171.5" y="84.5" width="203" height="28"/></g></g></svg>