<svg width="500" height="500" viewBox="0 0 500 500" fill="none" xmlns="http://www.w3.org/2000/svg">
<g clip-path="url(#clip0)">
<path d="M500 422.414C500 450.98 476.842 474.138 448.276 474.138H51.7241C23.1577 474.138 0 450.98 0 422.414L250 413.793L500 422.414Z" fill="#E57E25"/>
<path d="M146.552 112.069V137.931H60.3447V112.069C60.3447 97.7858 71.9236 86.2069 86.2068 86.2069H120.69C134.973 86.2069 146.552 97.7858 146.552 112.069Z" fill="#F0C419"/>
<path d="M439.655 112.069V137.931H353.448V112.069C353.448 97.7858 365.027 86.2069 379.31 86.2069H413.793C428.076 86.2069 439.655 97.7858 439.655 112.069Z" fill="#F0C419"/>
<path d="M344.828 43.1035C350.439 50.5565 353.465 59.6365 353.448 68.9655L353.448 137.931H318.966V68.9655C318.966 64.2044 315.106 60.3448 310.345 60.3448H189.655C184.894 60.3448 181.035 64.2044 181.035 68.9655V137.931H146.552V68.9655C146.552 45.1601 165.85 25.8621 189.655 25.8621H310.345C323.915 25.8512 336.695 32.2412 344.828 43.1035Z" fill="#805333"/>
<path d="M0 353.448V181.034C0 152.468 23.1577 129.31 51.7241 129.31H448.276C476.842 129.31 500 152.468 500 181.034V353.448" fill="#A56A43"/>
<path d="M500 250V422.414H0V250C0 263.793 26.2069 276.379 68.9655 285.603C74.4828 286.897 80.1724 288.017 86.2069 289.052C126.114 295.797 166.44 299.772 206.897 300.948V336.207C206.925 345.717 214.628 353.42 224.138 353.448H275.862C285.372 353.42 293.075 345.717 293.103 336.207V300.948C333.56 299.772 373.886 295.797 413.793 289.052C419.828 288.017 425.517 286.897 431.034 285.603C473.793 276.379 500 263.793 500 250Z" fill="#805333"/>
<path d="M86.207 289.052V379.31C86.207 384.071 82.3473 387.931 77.5863 387.931C72.8252 387.931 68.9656 384.071 68.9656 379.31V285.603C74.4828 286.896 80.1725 288.017 86.207 289.052Z" fill="#603E26"/>
<path d="M431.034 285.603V379.31C431.034 384.071 427.175 387.931 422.414 387.931C417.653 387.931 413.793 384.071 413.793 379.31V289.052C419.827 288.017 425.517 286.896 431.034 285.603Z" fill="#603E26"/>
<path d="M34.4827 224.138C29.7217 224.138 25.8621 220.278 25.8621 215.517V181.034C25.8621 166.751 37.4409 155.172 51.7241 155.172H86.2069C90.968 155.172 94.8276 159.032 94.8276 163.793C94.8276 168.554 90.968 172.414 86.2069 172.414H51.7241C46.9631 172.414 43.1034 176.273 43.1034 181.034V215.517C43.1034 220.278 39.2438 224.138 34.4827 224.138Z" fill="white"/>
<path d="M275.862 250H224.138C214.616 250 206.896 257.719 206.896 267.241V336.207C206.896 345.729 214.616 353.448 224.138 353.448H275.862C285.384 353.448 293.103 345.729 293.103 336.207V267.241C293.103 257.719 285.384 250 275.862 250Z" fill="#F0C419"/>
<path d="M232.759 353.448H267.241V422.414H232.759V353.448Z" fill="#F29C1F"/>
<path d="M250 327.586C245.239 327.586 241.379 323.727 241.379 318.966V284.483C241.379 279.722 245.239 275.862 250 275.862C254.761 275.862 258.621 279.722 258.621 284.483V318.966C258.621 323.727 254.761 327.586 250 327.586Z" fill="#B19046"/>
<path d="M267.241 215.517H232.759C227.998 215.517 224.138 211.658 224.138 206.897C224.138 202.135 227.998 198.276 232.759 198.276H267.241C272.002 198.276 275.862 202.135 275.862 206.897C275.862 211.658 272.002 215.517 267.241 215.517Z" fill="#F3D55B"/>
<path d="M258.621 181.034H241.379C236.618 181.034 232.759 177.175 232.759 172.414C232.759 167.653 236.618 163.793 241.379 163.793H258.621C263.382 163.793 267.241 167.653 267.241 172.414C267.241 177.175 263.382 181.034 258.621 181.034Z" fill="#F3D55B"/>
</g>
<defs>
<clipPath id="clip0">
<rect width="500" height="500" fill="white"/>
</clipPath>
</defs>
</svg>
