<svg width="151" height="151" viewBox="0 0 151 151" fill="none" xmlns="http://www.w3.org/2000/svg">
<path fill-rule="evenodd" clip-rule="evenodd" d="M120.481 10H10.5444V10V29.9136V57V65.0864V85V93V120.086V140H30.4581H58V140.395H66V140H85V140.395H93V140H120.481H140.395V120.086L140.395 29.9136V10H120.481ZM93 120.086H120.481V93H93V120.086ZM93 85H120.481V65.0864H93V85ZM85 65.0864V85H66V65.0864H85ZM93 57H120.481V29.9136H93V57ZM85 29.9136V57H66V29.9136H85ZM85 93V120.086H66V93H85ZM58 120.086V93H30.4581V120.086H58ZM58 85V65.0864H30.4581V85H58ZM58 57V29.9136H30.4581V57H58Z" fill="white"/>
</svg>
