<svg width="300" height="300" viewBox="0 0 300 300" fill="none" xmlns="http://www.w3.org/2000/svg">
<rect width="300" height="300" fill="#3C096C"/>
<g filter="url(#filter0_d_342:12)">
<path d="M108.206 132L79.8858 94.8V132H59.3658V47.76H79.8858V84.72L107.966 47.76H132.086L99.4458 89.04L133.286 132H108.206ZM219.478 117.12H188.038L182.998 132H161.518L191.998 47.76H215.758L246.238 132H224.518L219.478 117.12ZM214.198 101.28L203.758 70.44L193.438 101.28H214.198ZM112.651 208.8C117.531 209.84 121.451 212.28 124.411 216.12C127.371 219.88 128.851 224.2 128.851 229.08C128.851 236.12 126.371 241.72 121.411 245.88C116.531 249.96 109.691 252 100.891 252H61.6509V167.76H99.5709C108.131 167.76 114.811 169.72 119.611 173.64C124.491 177.56 126.931 182.88 126.931 189.6C126.931 194.56 125.611 198.68 122.971 201.96C120.411 205.24 116.971 207.52 112.651 208.8ZM82.1709 201.84H95.6109C98.9709 201.84 101.531 201.12 103.291 199.68C105.131 198.16 106.051 195.96 106.051 193.08C106.051 190.2 105.131 188 103.291 186.48C101.531 184.96 98.9709 184.2 95.6109 184.2H82.1709V201.84ZM97.2909 235.44C100.731 235.44 103.371 234.68 105.211 233.16C107.131 231.56 108.091 229.28 108.091 226.32C108.091 223.36 107.091 221.04 105.091 219.36C103.171 217.68 100.491 216.84 97.0509 216.84H82.1709V235.44H97.2909ZM217.193 237.12H185.753L180.713 252H159.233L189.713 167.76H213.473L243.953 252H222.233L217.193 237.12ZM211.913 221.28L201.473 190.44L191.153 221.28H211.913Z" fill="white"/>
</g>
<defs>
<filter id="filter0_d_342:12" x="49.3658" y="41.76" width="206.872" height="224.24" filterUnits="userSpaceOnUse" color-interpolation-filters="sRGB">
<feFlood flood-opacity="0" result="BackgroundImageFix"/>
<feColorMatrix in="SourceAlpha" type="matrix" values="0 0 0 0 0 0 0 0 0 0 0 0 0 0 0 0 0 0 127 0" result="hardAlpha"/>
<feOffset dy="4"/>
<feGaussianBlur stdDeviation="5"/>
<feComposite in2="hardAlpha" operator="out"/>
<feColorMatrix type="matrix" values="0 0 0 0 0.0627451 0 0 0 0 0 0 0 0 0 0.168627 0 0 0 0.3 0"/>
<feBlend mode="normal" in2="BackgroundImageFix" result="effect1_dropShadow_342:12"/>
<feBlend mode="normal" in="SourceGraphic" in2="effect1_dropShadow_342:12" result="shape"/>
</filter>
</defs>
</svg>
