<?xml version="1.0" standalone="no"?>
<!DOCTYPE svg PUBLIC "-//W3C//DTD SVG 20010904//EN"
 "http://www.w3.org/TR/2001/REC-SVG-20010904/DTD/svg10.dtd">
<svg version="1.0" xmlns="http://www.w3.org/2000/svg"
 width="700.000000pt" height="700.000000pt" viewBox="0 0 700.000000 700.000000"
 preserveAspectRatio="xMidYMid meet">
<metadata>
Created by potrace 1.14, written by Peter Selinger 2001-2017
</metadata>
<g transform="translate(0.000000,700.000000) scale(0.100000,-0.100000)"
fill="#000000" stroke="none">
<path d="M0 3500 l0 -3500 3500 0 3500 0 0 3500 0 3500 -3500 0 -3500 0 0
-3500z m1862 1958 l3 -433 329 433 328 432 280 0 c221 0 278 -3 272 -12 -8
-12 -649 -825 -721 -914 l-33 -41 306 -389 c169 -214 347 -440 396 -501 l89
-113 -293 0 -293 0 -324 426 c-179 234 -328 427 -333 430 -4 3 -8 -189 -8
-425 l0 -431 -240 0 -240 0 0 978 c0 538 3 982 7 985 3 4 111 7 240 7 l233 0
2 -432z m3521 -533 c191 -528 350 -970 353 -983 l6 -22 -253 2 -252 3 -57 170
-57 170 -368 0 -368 0 -57 -170 -57 -170 -252 -3 c-206 -2 -252 0 -248 11 3 7
160 442 350 967 190 525 349 963 352 973 7 16 27 17 284 15 l276 -3 348 -960z
m-2964 -1845 c187 -17 310 -68 411 -170 89 -90 130 -197 130 -338 0 -183 -90
-331 -247 -409 l-75 -37 39 -11 c71 -21 128 -58 188 -119 110 -113 155 -248
136 -410 -26 -223 -171 -379 -411 -442 -57 -15 -135 -18 -607 -21 l-543 -4 0
985 0 986 433 0 c237 0 483 -5 546 -10z m2912 -960 c192 -531 352 -973 355
-982 5 -17 -11 -18 -248 -18 l-253 0 -58 175 -59 175 -366 -2 -367 -3 -58
-172 -59 -173 -250 0 c-234 0 -250 1 -245 17 4 17 673 1867 696 1926 l11 27
276 -2 276 -3 349 -965z"/>
<path d="M4636 5003 c-64 -191 -116 -351 -116 -356 0 -4 106 -7 235 -7 129 0
235 4 235 8 0 10 -229 695 -234 700 -2 2 -56 -153 -120 -345z"/>
<path d="M1920 2495 l0 -205 175 0 c205 0 263 10 312 53 46 40 63 82 63 152 0
66 -17 110 -56 147 -53 49 -98 58 -305 58 l-189 0 0 -205z"/>
<path d="M1920 1725 l0 -215 214 0 c225 0 257 5 315 48 95 71 94 253 -2 327
-62 47 -111 55 -329 55 l-198 0 0 -215z"/>
<path d="M4578 2190 l-116 -350 240 0 c188 0 239 3 236 13 -3 6 -56 164 -118
350 -62 185 -116 337 -119 337 -3 0 -59 -157 -123 -350z"/>
</g>
</svg>
